<?xml version="1.0" standalone="no"?>
<!DOCTYPE svg PUBLIC "-//W3C//DTD SVG 20010904//EN"
 "http://www.w3.org/TR/2001/REC-SVG-20010904/DTD/svg10.dtd">
<svg version="1.0" xmlns="http://www.w3.org/2000/svg"
 width="1024.000000pt" height="1024.000000pt" viewBox="0 0 1024.000000 1024.000000"
 preserveAspectRatio="xMidYMid meet">
<metadata>
Created by potrace 1.14, written by Peter Selinger 2001-2017
</metadata>
<g transform="translate(0.000000,1024.000000) scale(0.100000,-0.100000)"
fill="#000000" stroke="none">
<path d="M960 10233 c-134 -21 -283 -71 -389 -129 -243 -132 -440 -374 -522
-640 -50 -163 -48 63 -45 -4379 2 -3820 3 -4155 18 -4215 74 -293 230 -523
460 -678 131 -88 233 -131 398 -168 l105 -23 4160 2 c2288 1 4169 5 4180 9 11
3 49 13 85 22 132 34 273 100 380 178 47 34 192 176 225 220 88 116 177 311
200 437 2 14 9 49 14 76 7 32 9 1514 8 4210 l-2 4160 -23 80 c-81 288 -230
502 -459 656 -113 77 -269 144 -378 163 -16 3 -41 9 -55 13 -25 8 -8313 14
-8360 6z"/>
</g>
</svg>
